<?xml version="1.0" encoding="utf-8"?>
<!-- Generator: Adobe Illustrator 23.0.6, SVG Export Plug-In . SVG Version: 6.00 Build 0)  -->
<svg version="1.1" id="Ebene_1" xmlns="http://www.w3.org/2000/svg" xmlns:xlink="http://www.w3.org/1999/xlink" x="0px" y="0px"
	 viewBox="0 0 390.8 84.4" style="enable-background:new 0 0 390.8 84.4;" xml:space="preserve">
<style type="text/css">
	.st0{fill:#FFFFFF;}
</style>
<title>LaMaison_white</title>
<g>
	<path class="st0" d="M11.9,21.3h5.7v34.9h21.6v5H11.9V21.3z"/>
	<path class="st0" d="M77.1,51.2H55.9l-4.4,10h-5.9l18.1-39.9h5.6l18.1,39.9h-6L77.1,51.2z M75.1,46.6l-8.6-19.6l-8.6,19.6H75.1z"/>
	<path class="st0" d="M157.1,61.2l-0.1-29.1l-14.4,24.2H140l-14.4-24.1v28.9h-5.5V21.3h4.7l16.6,28l16.4-28h4.7l0.1,39.9H157.1z"/>
	<path class="st0" d="M205.7,51.2h-21.2l-4.4,10h-5.9l18.1-39.9h5.6l18.1,39.9h-6L205.7,51.2z M203.7,46.6l-8.6-19.6l-8.6,19.6
		H203.7z"/>
	<path class="st0" d="M227.7,21.3h5.7v39.9h-5.7V21.3z"/>
	<path class="st0" d="M254,60.2c-2.8-0.9-5-2.1-6.6-3.6l2.1-4.4c1.5,1.4,3.5,2.5,5.8,3.3c2.4,0.9,4.8,1.3,7.3,1.3
		c3.3,0,5.8-0.6,7.4-1.7c1.6-1.1,2.5-2.6,2.5-4.5c0-1.4-0.4-2.5-1.3-3.3c-0.9-0.9-2-1.5-3.3-2c-1.3-0.5-3.2-1-5.6-1.5
		c-3-0.7-5.4-1.4-7.3-2.2c-1.8-0.7-3.4-1.8-4.7-3.3c-1.3-1.5-2-3.5-2-6.1c0-2.1,0.6-4,1.7-5.8c1.1-1.7,2.8-3.1,5.1-4.1
		s5.1-1.5,8.5-1.5c2.4,0,4.7,0.3,7,0.9c2.3,0.6,4.2,1.5,5.9,2.6l-1.9,4.6c-1.7-1.1-3.5-1.9-5.4-2.4c-1.9-0.6-3.8-0.8-5.6-0.8
		c-3.2,0-5.7,0.6-7.3,1.8c-1.6,1.2-2.4,2.7-2.4,4.6c0,1.4,0.5,2.5,1.4,3.3s2,1.5,3.4,2c1.3,0.5,3.2,1,5.5,1.5c3,0.7,5.4,1.4,7.2,2.2
		c1.8,0.7,3.4,1.8,4.7,3.3c1.3,1.5,2,3.5,2,6c0,2.1-0.6,4-1.7,5.7c-1.1,1.7-2.9,3.1-5.2,4.1c-2.3,1-5.2,1.5-8.5,1.5
		C259.7,61.6,256.8,61.2,254,60.2z"/>
	<path class="st0" d="M299.3,59c-3.2-1.8-5.8-4.2-7.6-7.3c-1.8-3.1-2.8-6.6-2.8-10.4c0-3.8,0.9-7.3,2.8-10.4
		c1.8-3.1,4.4-5.6,7.6-7.3c3.2-1.8,6.9-2.7,10.9-2.7c4,0,7.6,0.9,10.8,2.7c3.2,1.8,5.8,4.2,7.6,7.3c1.8,3.1,2.7,6.6,2.7,10.5
		s-0.9,7.4-2.7,10.5s-4.4,5.5-7.6,7.3c-3.2,1.8-6.8,2.7-10.8,2.7C306.1,61.6,302.5,60.8,299.3,59z M318.1,54.6
		c2.3-1.3,4.2-3.2,5.5-5.5c1.3-2.3,2-4.9,2-7.8c0-2.9-0.7-5.5-2-7.8c-1.3-2.3-3.2-4.2-5.5-5.5c-2.3-1.3-5-2-7.9-2
		c-2.9,0-5.6,0.7-8,2c-2.4,1.3-4.2,3.2-5.6,5.5c-1.3,2.3-2,5-2,7.8c0,2.9,0.7,5.5,2,7.8c1.3,2.3,3.2,4.2,5.6,5.5c2.4,1.3,5,2,8,2
		C313.1,56.6,315.7,55.9,318.1,54.6z"/>
	<path class="st0" d="M380.1,21.3v39.9h-4.7l-23.9-29.8v29.8h-5.7V21.3h4.7L374.4,51V21.3H380.1z"/>
</g>
</svg>
